<svg xmlns="http://www.w3.org/2000/svg" version="1.1" xmlns:xlink="http://www.w3.org/1999/xlink" xmlns:svgjs="http://svgjs.dev/svgjs" viewBox="0 0 800 800" opacity="1"><defs><linearGradient x1="50%" y1="0%" x2="50%" y2="100%" id="vvvortex-grad"><stop stop-color="hsl(37, 99%, 67%)" stop-opacity="1" offset="0%"></stop><stop stop-color="hsl(316, 73%, 52%)" stop-opacity="1" offset="100%"></stop></linearGradient></defs><g stroke="url(#vvvortex-grad)" fill="none" stroke-linecap="round"><circle r="231" cx="400" cy="400" stroke-width="11" stroke-dasharray="42 38" stroke-dashoffset="25" transform="rotate(117, 400, 400)" opacity="0.05"></circle><circle r="214.5" cx="400" cy="400" stroke-width="11" stroke-dasharray="42 46" stroke-dashoffset="25" transform="rotate(129, 400, 400)" opacity="0.12"></circle><circle r="198" cx="400" cy="400" stroke-width="10" stroke-dasharray="53 25" stroke-dashoffset="25" transform="rotate(337, 400, 400)" opacity="0.20"></circle><circle r="181.5" cx="400" cy="400" stroke-width="10" stroke-dasharray="53 26" stroke-dashoffset="25" transform="rotate(265, 400, 400)" opacity="0.27"></circle><circle r="165" cx="400" cy="400" stroke-width="9" stroke-dasharray="41 33" stroke-dashoffset="25" transform="rotate(188, 400, 400)" opacity="0.34"></circle><circle r="148.5" cx="400" cy="400" stroke-width="9" stroke-dasharray="36 36" stroke-dashoffset="25" transform="rotate(352, 400, 400)" opacity="0.42"></circle><circle r="132" cx="400" cy="400" stroke-width="8" stroke-dasharray="22 22" stroke-dashoffset="25" transform="rotate(115, 400, 400)" opacity="0.49"></circle><circle r="115.5" cx="400" cy="400" stroke-width="8" stroke-dasharray="17 26" stroke-dashoffset="25" transform="rotate(127, 400, 400)" opacity="0.56"></circle><circle r="99" cx="400" cy="400" stroke-width="7" stroke-dasharray="26 15" stroke-dashoffset="25" transform="rotate(331, 400, 400)" opacity="0.63"></circle><circle r="82.5" cx="400" cy="400" stroke-width="7" stroke-dasharray="50 23" stroke-dashoffset="25" transform="rotate(192, 400, 400)" opacity="0.71"></circle><circle r="66" cx="400" cy="400" stroke-width="6" stroke-dasharray="41 35" stroke-dashoffset="25" transform="rotate(345, 400, 400)" opacity="0.78"></circle><circle r="49.5" cx="400" cy="400" stroke-width="6" stroke-dasharray="16 28" stroke-dashoffset="25" transform="rotate(357, 400, 400)" opacity="0.85"></circle><circle r="33" cx="400" cy="400" stroke-width="5" stroke-dasharray="13 38" stroke-dashoffset="25" transform="rotate(211, 400, 400)" opacity="0.93"></circle><circle r="16.5" cx="400" cy="400" stroke-width="5" stroke-dasharray="50 55" stroke-dashoffset="25" transform="rotate(301, 400, 400)" opacity="1.00"></circle></g></svg>